<svg xmlns="http://www.w3.org/2000/svg" viewBox="0 0 512 512" fill="none"><defs><linearGradient id="outlineGrad" x1="0%" y1="0%" x2="100%" y2="100%"><stop offset="0%" stop-color="#10B981"/><stop offset="35%" stop-color="#059669"/><stop offset="65%" stop-color="#2563EB"/><stop offset="100%" stop-color="#7C3AED"/></linearGradient></defs><rect x="60" y="60" width="210" height="210" rx="48" stroke="url(#outlineGrad)" stroke-width="16" opacity="0.85"/><rect x="242" y="60" width="210" height="210" rx="48" stroke="url(#outlineGrad)" stroke-width="16" opacity="0.85"/><rect x="60" y="242" width="210" height="210" rx="48" stroke="url(#outlineGrad)" stroke-width="16" opacity="0.85"/><g transform="translate(129, 129) scale(3)"><path d="M11 20A7 7 0 0 1 9.8 6.1C15.5 5 17 4.48 19 2c1 2 2 3.5 1 9.8a7 7 0 0 1-9 8.2Zm0 0v-5" stroke="url(#outlineGrad)" stroke-width="2" stroke-linecap="round" stroke-linejoin="round"/></g><g transform="translate(311, 129) scale(3)"><path d="M22 12h-4l-3 9L9 3l-3 9H2" stroke="url(#outlineGrad)" stroke-width="2" stroke-linecap="round" stroke-linejoin="round"/></g><g transform="translate(129, 311) scale(3)"><path d="M2 3h6a4 4 0 0 1 4 4v14a3 3 0 0 0-3-3H2zM22 3h-6a4 4 0 0 0-4 4v14a3 3 0 0 1 3-3h7z" stroke="url(#outlineGrad)" stroke-width="2" stroke-linecap="round" stroke-linejoin="round"/></g><line x1="347" y1="311" x2="347" y2="383" stroke="#7C3AED" stroke-width="16" stroke-linecap="round"/><line x1="311" y1="347" x2="383" y2="347" stroke="#7C3AED" stroke-width="16" stroke-linecap="round"/></svg>